<svg xmlns="http://www.w3.org/2000/svg" xmlns:xlink="http://www.w3.org/1999/xlink" width="500" zoomAndPan="magnify" viewBox="0 0 375 158.249993" height="211" preserveAspectRatio="xMidYMid meet" version="1.0"><defs><clipPath id="45666c3523"><path d="M 3 105 L 57 105 L 57 157.503906 L 3 157.503906 Z M 3 105 " clip-rule="nonzero"/></clipPath><clipPath id="e4d5baf725"><path d="M 213 0 L 372 0 L 372 157.503906 L 213 157.503906 Z M 213 0 " clip-rule="nonzero"/></clipPath></defs><path fill="#1781fd" d="M 213.710938 78.726562 C 213.710938 93.265625 201.933594 104.964844 187.46875 104.964844 C 173.007812 104.964844 161.230469 93.1875 161.230469 78.726562 C 161.230469 59.046875 154.671875 52.488281 134.992188 52.488281 C 115.3125 52.488281 108.753906 59.046875 108.753906 78.726562 C 108.753906 93.265625 96.976562 104.964844 82.515625 104.964844 C 68.050781 104.964844 56.277344 93.1875 56.277344 78.726562 C 56.277344 64.183594 68.050781 52.488281 82.515625 52.488281 C 102.195312 52.488281 108.753906 45.925781 108.753906 26.246094 C 108.753906 11.707031 120.53125 0.0078125 134.992188 0.0078125 C 149.457031 0.0078125 161.230469 11.785156 161.230469 26.246094 C 161.230469 45.925781 167.792969 52.488281 187.46875 52.488281 C 188.332031 52.484375 189.1875 52.523438 190.042969 52.605469 C 190.902344 52.691406 191.75 52.8125 192.59375 52.980469 C 193.4375 53.144531 194.269531 53.355469 195.09375 53.601562 C 195.917969 53.851562 196.726562 54.140625 197.523438 54.46875 C 198.316406 54.796875 199.09375 55.160156 199.851562 55.566406 C 200.609375 55.96875 201.347656 56.410156 202.0625 56.890625 C 202.777344 57.367188 203.46875 57.878906 204.132812 58.421875 C 204.796875 58.96875 205.433594 59.546875 206.042969 60.152344 C 206.652344 60.761719 207.226562 61.398438 207.773438 62.0625 C 208.316406 62.726562 208.828125 63.417969 209.308594 64.132812 C 209.785156 64.847656 210.226562 65.585938 210.628906 66.34375 C 211.035156 67.101562 211.402344 67.878906 211.730469 68.675781 C 212.058594 69.46875 212.34375 70.277344 212.59375 71.101562 C 212.84375 71.925781 213.050781 72.757812 213.214844 73.601562 C 213.382812 74.445312 213.507812 75.296875 213.589844 76.152344 C 213.671875 77.007812 213.710938 77.867188 213.710938 78.726562 Z M 213.710938 78.726562 " fill-opacity="1" fill-rule="nonzero"/><g clip-path="url(#45666c3523)"><path fill="#1781fd" d="M 56.117188 131.28125 C 56.117188 132.140625 56.074219 133 55.992188 133.855469 C 55.90625 134.710938 55.78125 135.558594 55.613281 136.402344 C 55.445312 137.242188 55.238281 138.078125 54.988281 138.898438 C 54.738281 139.722656 54.449219 140.53125 54.121094 141.324219 C 53.792969 142.117188 53.425781 142.894531 53.019531 143.652344 C 52.613281 144.410156 52.171875 145.144531 51.695312 145.859375 C 51.21875 146.574219 50.707031 147.261719 50.164062 147.929688 C 49.617188 148.59375 49.039062 149.226562 48.433594 149.835938 C 47.824219 150.445312 47.1875 151.019531 46.523438 151.566406 C 45.859375 152.109375 45.171875 152.621094 44.457031 153.097656 C 43.742188 153.578125 43.007812 154.019531 42.25 154.421875 C 41.492188 154.828125 40.714844 155.195312 39.921875 155.523438 C 39.125 155.851562 38.320312 156.140625 37.496094 156.390625 C 36.671875 156.640625 35.839844 156.847656 35 157.015625 C 34.15625 157.183594 33.304688 157.308594 32.449219 157.394531 C 31.597656 157.480469 30.738281 157.519531 29.878906 157.519531 C 29.019531 157.519531 28.164062 157.480469 27.308594 157.394531 C 26.453125 157.308594 25.601562 157.183594 24.761719 157.015625 C 23.917969 156.847656 23.085938 156.640625 22.261719 156.390625 C 21.441406 156.140625 20.632812 155.851562 19.839844 155.523438 C 19.042969 155.195312 18.269531 154.828125 17.511719 154.421875 C 16.753906 154.019531 16.015625 153.578125 15.300781 153.097656 C 14.585938 152.621094 13.898438 152.109375 13.234375 151.566406 C 12.570312 151.019531 11.933594 150.445312 11.324219 149.835938 C 10.71875 149.226562 10.140625 148.59375 9.597656 147.929688 C 9.050781 147.261719 8.539062 146.574219 8.0625 145.859375 C 7.585938 145.144531 7.144531 144.410156 6.738281 143.652344 C 6.332031 142.894531 5.964844 142.117188 5.636719 141.324219 C 5.308594 140.53125 5.019531 139.722656 4.769531 138.898438 C 4.519531 138.078125 4.3125 137.242188 4.144531 136.402344 C 3.976562 135.558594 3.851562 134.710938 3.765625 133.855469 C 3.683594 133 3.640625 132.140625 3.640625 131.28125 C 3.640625 130.421875 3.683594 129.566406 3.765625 128.710938 C 3.851562 127.855469 3.976562 127.007812 4.144531 126.164062 C 4.3125 125.320312 4.519531 124.488281 4.769531 123.664062 C 5.019531 122.84375 5.308594 122.035156 5.636719 121.242188 C 5.964844 120.445312 6.332031 119.671875 6.738281 118.914062 C 7.144531 118.15625 7.585938 117.417969 8.0625 116.703125 C 8.539062 115.988281 9.050781 115.300781 9.597656 114.636719 C 10.140625 113.972656 10.71875 113.335938 11.324219 112.726562 C 11.933594 112.121094 12.570312 111.542969 13.234375 111 C 13.898438 110.453125 14.585938 109.941406 15.300781 109.464844 C 16.015625 108.988281 16.753906 108.546875 17.511719 108.140625 C 18.269531 107.738281 19.042969 107.371094 19.839844 107.039062 C 20.632812 106.710938 21.441406 106.421875 22.261719 106.171875 C 23.085938 105.921875 23.917969 105.714844 24.761719 105.546875 C 25.601562 105.378906 26.453125 105.253906 27.308594 105.167969 C 28.164062 105.085938 29.019531 105.042969 29.878906 105.042969 C 30.738281 105.042969 31.597656 105.085938 32.449219 105.167969 C 33.304688 105.253906 34.15625 105.378906 35 105.546875 C 35.839844 105.714844 36.671875 105.921875 37.496094 106.171875 C 38.320312 106.421875 39.125 106.710938 39.921875 107.039062 C 40.714844 107.371094 41.492188 107.738281 42.25 108.140625 C 43.007812 108.546875 43.742188 108.988281 44.457031 109.464844 C 45.171875 109.941406 45.859375 110.453125 46.523438 111 C 47.1875 111.542969 47.824219 112.121094 48.433594 112.726562 C 49.039062 113.335938 49.617188 113.972656 50.164062 114.636719 C 50.707031 115.300781 51.21875 115.988281 51.695312 116.703125 C 52.171875 117.417969 52.613281 118.15625 53.019531 118.914062 C 53.425781 119.671875 53.792969 120.445312 54.121094 121.242188 C 54.449219 122.035156 54.738281 122.84375 54.988281 123.664062 C 55.238281 124.488281 55.445312 125.320312 55.613281 126.164062 C 55.78125 127.007812 55.90625 127.855469 55.992188 128.710938 C 56.074219 129.566406 56.117188 130.421875 56.117188 131.28125 Z M 56.117188 131.28125 " fill-opacity="1" fill-rule="nonzero"/></g><g clip-path="url(#e4d5baf725)"><path fill="#1781fd" d="M 371.378906 26.167969 C 371.378906 40.710938 359.605469 52.40625 345.140625 52.40625 C 325.460938 52.40625 318.902344 58.96875 318.902344 78.644531 C 318.902344 93.1875 307.125 104.886719 292.664062 104.886719 C 272.984375 104.886719 266.425781 111.445312 266.425781 131.125 C 266.425781 145.667969 254.648438 157.363281 240.183594 157.363281 C 225.722656 157.363281 213.945312 145.585938 213.945312 131.125 C 213.945312 116.582031 225.722656 104.886719 240.183594 104.886719 C 259.863281 104.886719 266.425781 98.324219 266.425781 78.644531 C 266.425781 64.105469 278.199219 52.40625 292.664062 52.40625 C 312.34375 52.40625 318.902344 45.847656 318.902344 26.167969 C 318.902344 11.625 330.679688 -0.0703125 345.140625 -0.0703125 C 359.605469 -0.0703125 371.378906 11.707031 371.378906 26.167969 Z M 371.378906 26.167969 " fill-opacity="1" fill-rule="nonzero"/></g></svg>